<svg width="512" height="512" viewBox="0 0 512 512" fill="none" xmlns="http://www.w3.org/2000/svg">
<path d="M402.53 132.205C402.206 129.247 402.833 126.263 404.32 123.685L408.24 116.885C409.726 114.305 411.996 112.267 414.72 111.065L425.72 106.225C427.974 105.242 429.928 103.68 431.383 101.697C432.837 99.7135 433.74 97.3805 434 94.9349C434.565 89.2423 434.565 83.5076 434 77.8149C433.734 75.3683 432.824 73.036 431.362 71.0561C429.901 69.0762 427.94 67.5195 425.68 66.5449L414.68 61.7149C411.939 60.5082 409.657 58.4543 408.17 55.8549L404.25 48.9949C402.798 46.4305 402.193 43.4735 402.52 40.5449L403.82 28.5449C404.105 26.133 403.748 23.6887 402.786 21.4588C401.824 19.2289 400.29 17.2924 398.34 15.8449C393.63 12.4326 388.58 9.51706 383.27 7.14492C381.041 6.17927 378.596 5.8196 376.183 6.10232C373.771 6.38504 371.475 7.3001 369.53 8.75492L359.83 15.8549C357.445 17.6038 354.567 18.5525 351.61 18.5649H343.71C340.713 18.5809 337.789 17.6345 335.37 15.8649L325.7 8.79492C323.728 7.33233 321.405 6.41759 318.965 6.1436C316.526 5.86961 314.057 6.24613 311.81 7.23492C306.6 9.61803 301.639 12.5122 297 15.8749C295.011 17.3268 293.443 19.2803 292.456 21.536C291.469 23.7917 291.097 26.2689 291.38 28.7149L292.68 40.6349C293.004 43.593 292.377 46.5773 290.89 49.1549L286.97 55.9549C285.484 58.5346 283.214 60.5733 280.49 61.7749L269.49 66.6149C267.232 67.5957 265.275 69.1571 263.817 71.1403C262.359 73.1235 261.453 75.4575 261.19 77.9049C260.625 83.5976 260.625 89.3323 261.19 95.0249C261.457 97.4658 262.366 99.7925 263.824 101.768C265.282 103.744 267.237 105.299 269.49 106.275L280.49 111.105C283.231 112.312 285.513 114.366 287 116.965L290.92 123.825C292.39 126.391 293.009 129.356 292.69 132.295L291.39 144.295C291.105 146.707 291.462 149.151 292.424 151.381C293.386 153.611 294.92 155.547 296.87 156.995C301.58 160.406 306.63 163.322 311.94 165.695C314.169 166.66 316.614 167.019 319.026 166.736C321.439 166.453 323.734 165.539 325.68 164.085L335.38 156.985C337.765 155.236 340.643 154.287 343.6 154.275H351.5C354.497 154.259 357.421 155.205 359.84 156.975L369.51 164.045C371.485 165.494 373.808 166.396 376.243 166.659C378.679 166.923 381.141 166.538 383.38 165.545C388.594 163.192 393.561 160.328 398.21 156.995C400.199 155.543 401.767 153.59 402.754 151.334C403.741 149.078 404.113 146.601 403.83 144.155L402.53 132.205ZM331.76 113.855C326.332 110.727 321.953 106.06 319.178 100.444C316.403 94.8272 315.355 88.5138 316.169 82.3021C316.982 76.0904 319.619 70.2595 323.747 65.5469C327.875 60.8343 333.308 57.4518 339.358 55.8272C345.409 54.2027 351.805 54.4091 357.738 56.4203C363.671 58.4315 368.874 62.1572 372.69 67.1261C376.505 72.095 378.761 78.0838 379.172 84.3351C379.584 90.5863 378.132 96.819 375 102.245C370.803 109.516 363.891 114.823 355.783 117.001C347.675 119.178 339.034 118.046 331.76 113.855V113.855Z" fill="#FF32B9"/>
<path d="M317.33 172.855C314.612 172.86 311.923 172.291 309.44 171.185C303.75 168.643 298.338 165.52 293.29 161.865C290.464 159.793 288.235 157.011 286.83 153.801C285.426 150.591 284.894 147.067 285.29 143.585L286.59 131.585C286.773 129.923 286.423 128.245 285.59 126.795L281.67 119.935C280.823 118.465 279.531 117.302 277.98 116.615L266.98 111.785C263.742 110.374 260.935 108.131 258.845 105.284C256.754 102.437 255.456 99.087 255.08 95.5749C254.476 89.4831 254.476 83.3466 255.08 77.2549C255.457 73.7407 256.759 70.3892 258.853 67.5417C260.947 64.6943 263.758 62.4526 267 61.0449L278 56.2049C279.544 55.5289 280.83 54.3758 281.67 52.9149L285.59 46.1149C286.43 44.6562 286.78 42.9671 286.59 41.2949L285.29 29.3749C284.891 25.8576 285.432 22.2974 286.858 19.0577C288.285 15.818 290.546 13.015 293.41 10.9349C298.389 7.36899 303.708 4.30408 309.29 1.78489C312.52 0.350298 316.072 -0.20281 319.585 0.181882C323.099 0.566573 326.447 1.87533 329.29 3.97489L339 11.0449C340.367 12.0175 342.002 12.5416 343.68 12.5449H351.58C353.253 12.5415 354.882 12.0056 356.23 11.0149L365.93 3.91489C368.742 1.82878 372.054 0.522097 375.533 0.127008C379.011 -0.268081 382.532 0.262432 385.74 1.66489C391.431 4.20587 396.843 7.32919 401.89 10.9849C404.716 13.0565 406.945 15.8383 408.35 19.0485C409.755 22.2587 410.286 25.7832 409.89 29.2649L408.59 41.2649C408.407 42.9272 408.757 44.6048 409.59 46.0549L413.51 52.9149C414.35 54.3902 415.645 55.5546 417.2 56.2349L428.2 61.0649C431.41 62.4834 434.19 64.7215 436.262 67.5546C438.333 70.3876 439.622 73.7158 440 77.2049C440.604 83.2966 440.604 89.4332 440 95.5249C439.633 99.0458 438.338 102.406 436.247 105.263C434.157 108.12 431.345 110.37 428.1 111.785L417.1 116.625C415.556 117.301 414.27 118.454 413.43 119.915L409.51 126.715C408.671 128.174 408.32 129.863 408.51 131.535L409.81 143.455C410.21 146.972 409.668 150.532 408.242 153.772C406.815 157.012 404.554 159.815 401.69 161.895C396.714 165.46 391.399 168.525 385.82 171.045C382.59 172.479 379.038 173.033 375.525 172.648C372.011 172.263 368.663 170.954 365.82 168.855L356.15 161.785C354.785 160.775 353.128 160.238 351.43 160.255H343.53C341.857 160.259 340.229 160.795 338.88 161.785L329.18 168.885C325.749 171.427 321.6 172.817 317.33 172.855V172.855ZM317.33 12.2049C316.275 12.2016 315.232 12.4232 314.27 12.8549C309.421 15.0599 304.801 17.7396 300.48 20.8549C299.366 21.6779 298.49 22.7817 297.942 24.0536C297.394 25.3255 297.193 26.72 297.36 28.0949L298.66 40.0149C299.13 44.2581 298.229 48.5402 296.09 52.2349L292.17 59.0349C290.043 62.7349 286.787 65.6574 282.88 67.3749L271.88 72.2149C270.608 72.7592 269.503 73.6308 268.678 74.7409C267.852 75.8511 267.335 77.1601 267.18 78.5349C266.655 83.8286 266.655 89.1612 267.18 94.4549C267.338 95.825 267.857 97.1287 268.682 98.2335C269.508 99.3383 270.611 100.205 271.88 100.745L282.88 105.575C286.808 107.315 290.079 110.261 292.22 113.985L296.14 120.845C298.248 124.521 299.134 128.772 298.67 132.985L297.37 144.985C297.2 146.329 297.388 147.694 297.915 148.943C298.442 150.191 299.289 151.279 300.37 152.095C304.746 155.264 309.437 157.972 314.37 160.175C315.622 160.698 316.989 160.881 318.335 160.705C319.68 160.529 320.954 160.002 322.03 159.175L331.73 152.075C335.146 149.566 339.271 148.207 343.51 148.195H351.41H351.5C355.763 148.206 359.914 149.564 363.36 152.075L373.03 159.155C374.134 159.983 375.436 160.504 376.806 160.665C378.176 160.827 379.564 160.623 380.83 160.075C385.679 157.87 390.299 155.19 394.62 152.075C395.734 151.252 396.61 150.148 397.158 148.876C397.706 147.604 397.907 146.21 397.74 144.835L396.44 132.915C395.971 128.672 396.871 124.39 399.01 120.695L402.93 113.895C405.057 110.195 408.313 107.272 412.22 105.555L423.22 100.715C424.514 100.178 425.64 99.3034 426.48 98.183C427.321 97.0626 427.846 95.7372 428 94.3449C428.525 89.0512 428.525 83.7186 428 78.4249C427.842 77.0548 427.324 75.7511 426.498 74.6463C425.672 73.5415 424.569 72.675 423.3 72.1349L412.3 67.3049C408.364 65.578 405.089 62.629 402.96 58.8949L399 52.0349C396.892 48.3585 396.006 44.1074 396.47 39.8949L397.77 27.8949C397.94 26.5506 397.752 25.1853 397.225 23.9369C396.698 22.6886 395.851 21.6013 394.77 20.7849C390.395 17.6185 385.703 14.9141 380.77 12.7149C379.518 12.1921 378.151 12.0092 376.806 12.1848C375.46 12.3604 374.186 12.8882 373.11 13.7149L363.41 20.8149C359.994 23.3238 355.869 24.6825 351.63 24.6949H343.73C339.417 24.7232 335.21 23.3628 331.73 20.8149L322.06 13.7449C320.697 12.7531 319.056 12.2144 317.37 12.2049H317.33ZM347.49 124.205C340.893 124.22 334.408 122.495 328.69 119.205C320.736 114.646 314.711 107.351 311.74 98.678C308.768 90.0053 309.052 80.5479 312.539 72.0692C316.026 63.5906 322.478 56.6695 330.691 52.5967C338.904 48.524 348.318 47.5775 357.178 49.9338C366.038 52.2901 373.738 57.7883 378.843 65.4032C383.948 73.018 386.109 82.2296 384.923 91.3203C383.737 100.411 379.286 108.76 372.398 114.811C365.511 120.861 356.658 124.2 347.49 124.205V124.205ZM347.6 60.8749C341.992 60.9044 336.549 62.7752 332.108 66.1996C327.668 69.624 324.474 74.4123 323.02 79.8284C321.566 85.2444 321.931 90.9882 324.059 96.1765C326.188 101.365 329.961 105.71 334.8 108.545C338.198 110.504 342.001 111.655 345.915 111.911C349.829 112.166 353.75 111.518 357.374 110.017C360.997 108.516 364.228 106.202 366.815 103.254C369.402 100.305 371.277 96.8019 372.294 93.0138C373.312 89.2258 373.445 85.2544 372.683 81.4067C371.922 77.559 370.286 73.9378 367.902 70.8228C365.519 67.7079 362.451 65.1827 358.936 63.4422C355.421 61.7017 351.552 60.7925 347.63 60.7849L347.6 60.8749Z" fill="#8C387F"/>
<path d="M81.16 148.885H430.84C440.229 148.885 449.233 152.615 455.872 159.253C462.51 165.892 466.24 174.896 466.24 184.285V432.545H45.76V184.285C45.76 174.896 49.4896 165.892 56.1284 159.253C62.7672 152.615 71.7714 148.885 81.16 148.885V148.885Z" fill="white"/>
<path d="M402.43 180.515H101.81C87.2462 180.515 75.44 192.321 75.44 206.885V378.455C75.44 393.019 87.2462 404.825 101.81 404.825H402.43C416.994 404.825 428.8 393.019 428.8 378.455V206.885C428.8 192.321 416.994 180.515 402.43 180.515Z" fill="white"/>
<path d="M402.44 410.895H101.81C93.2061 410.887 84.957 407.466 78.8731 401.382C72.7893 395.298 69.3679 387.049 69.36 378.445V206.875C69.3679 198.271 72.7893 190.022 78.8731 183.938C84.957 177.854 93.2061 174.433 101.81 174.425H402.44C411.044 174.433 419.293 177.854 425.377 183.938C431.461 190.022 434.882 198.271 434.89 206.875V378.455C434.879 387.057 431.457 395.304 425.373 401.385C419.29 407.467 411.042 410.887 402.44 410.895V410.895ZM101.81 186.545C96.4304 186.55 91.2726 188.69 87.4686 192.494C83.6647 196.298 81.5253 201.455 81.52 206.835V378.455C81.5253 383.835 83.6647 388.992 87.4686 392.796C91.2726 396.6 96.4304 398.74 101.81 398.745H402.44C407.82 398.74 412.977 396.6 416.781 392.796C420.585 388.992 422.725 383.835 422.73 378.455V206.875C422.733 204.208 422.21 201.566 421.192 199.101C420.173 196.636 418.68 194.396 416.795 192.508C414.911 190.62 412.674 189.122 410.211 188.099C407.748 187.075 405.107 186.548 402.44 186.545H101.81Z" fill="#8C387F"/>
<path d="M6.08001 432.545H505.92V461.945C505.92 467.608 504.805 473.215 502.638 478.446C500.471 483.678 497.294 488.431 493.29 492.435C489.286 496.439 484.533 499.616 479.301 501.783C474.07 503.95 468.463 505.065 462.8 505.065H49.2C43.534 505.065 37.9236 503.948 32.6895 501.779C27.4553 499.609 22.7 496.43 18.6954 492.421C14.6908 488.413 11.5155 483.655 9.35083 478.419C7.1862 473.182 6.07475 467.571 6.08001 461.905V432.545V432.545Z" fill="white"/>
<path d="M462.8 511.115H49.2C36.1545 511.099 23.648 505.909 14.4244 496.683C5.20072 487.458 0.0132318 474.95 0 461.905L0 432.545C0 430.932 0.64057 429.386 1.78079 428.246C2.92101 427.105 4.46748 426.465 6.08 426.465H505.92C507.533 426.465 509.079 427.105 510.219 428.246C511.359 429.386 512 430.932 512 432.545V461.945C511.976 474.983 506.784 487.481 497.562 496.698C488.339 505.914 475.839 511.099 462.8 511.115V511.115ZM12.16 438.545V461.865C12.1838 471.671 16.0896 481.068 23.0233 488.002C29.957 494.935 39.3543 498.841 49.16 498.865H462.8C472.606 498.841 482.003 494.935 488.937 488.002C495.87 481.068 499.776 471.671 499.8 461.865V438.545H12.16Z" fill="#8C387F"/>
<path d="M393.88 229.425H238.6C236.988 229.425 235.441 228.784 234.301 227.644C233.161 226.504 232.52 224.957 232.52 223.345C232.52 221.732 233.161 220.186 234.301 219.046C235.441 217.905 236.988 217.265 238.6 217.265H393.88C395.493 217.265 397.039 217.905 398.179 219.046C399.319 220.186 399.96 221.732 399.96 223.345C399.96 224.957 399.319 226.504 398.179 227.644C397.039 228.784 395.493 229.425 393.88 229.425V229.425Z" fill="#8C387F"/>
<path d="M393.88 263.425H238.6C236.988 263.425 235.441 262.784 234.301 261.644C233.161 260.504 232.52 258.957 232.52 257.345C232.52 255.732 233.161 254.186 234.301 253.046C235.441 251.905 236.988 251.265 238.6 251.265H393.88C395.493 251.265 397.039 251.905 398.179 253.046C399.319 254.186 399.96 255.732 399.96 257.345C399.96 258.957 399.319 260.504 398.179 261.644C397.039 262.784 395.493 263.425 393.88 263.425V263.425Z" fill="#8C387F"/>
<path d="M393.88 298.815H238.6C236.988 298.815 235.441 298.174 234.301 297.034C233.161 295.894 232.52 294.347 232.52 292.735C232.52 291.122 233.161 289.576 234.301 288.436C235.441 287.295 236.988 286.655 238.6 286.655H393.88C395.493 286.655 397.039 287.295 398.179 288.436C399.319 289.576 399.96 291.122 399.96 292.735C399.96 294.347 399.319 295.894 398.179 297.034C397.039 298.174 395.493 298.815 393.88 298.815Z" fill="#8C387F"/>
<path d="M393.88 335.545H238.6C236.988 335.545 235.441 334.904 234.301 333.764C233.161 332.624 232.52 331.077 232.52 329.465C232.52 327.852 233.161 326.306 234.301 325.166C235.441 324.025 236.988 323.385 238.6 323.385H393.88C395.493 323.385 397.039 324.025 398.179 325.166C399.319 326.306 399.96 327.852 399.96 329.465C399.96 331.077 399.319 332.624 398.179 333.764C397.039 334.904 395.493 335.545 393.88 335.545Z" fill="#8C387F"/>
<path d="M393.88 371.245H238.6C236.988 371.245 235.441 370.604 234.301 369.464C233.161 368.324 232.52 366.777 232.52 365.165C232.52 363.552 233.161 362.006 234.301 360.866C235.441 359.725 236.988 359.085 238.6 359.085H393.88C395.493 359.085 397.039 359.725 398.179 360.866C399.319 362.006 399.96 363.552 399.96 365.165C399.96 366.777 399.319 368.324 398.179 369.464C397.039 370.604 395.493 371.245 393.88 371.245Z" fill="#8C387F"/>
<path d="M211.73 231.435C216.198 231.435 219.82 227.813 219.82 223.345C219.82 218.877 216.198 215.255 211.73 215.255C207.262 215.255 203.64 218.877 203.64 223.345C203.64 227.813 207.262 231.435 211.73 231.435Z" fill="#8C387F"/>
<path d="M211.73 265.435C216.198 265.435 219.82 261.813 219.82 257.345C219.82 252.877 216.198 249.255 211.73 249.255C207.262 249.255 203.64 252.877 203.64 257.345C203.64 261.813 207.262 265.435 211.73 265.435Z" fill="#8C387F"/>
<path d="M211.73 300.835C216.198 300.835 219.82 297.213 219.82 292.745C219.82 288.277 216.198 284.655 211.73 284.655C207.262 284.655 203.64 288.277 203.64 292.745C203.64 297.213 207.262 300.835 211.73 300.835Z" fill="#8C387F"/>
<path d="M212.6 337.605C217.068 337.605 220.69 333.983 220.69 329.515C220.69 325.047 217.068 321.425 212.6 321.425C208.132 321.425 204.51 325.047 204.51 329.515C204.51 333.983 208.132 337.605 212.6 337.605Z" fill="#8C387F"/>
<path d="M212.6 373.255C217.068 373.255 220.69 369.633 220.69 365.165C220.69 360.697 217.068 357.075 212.6 357.075C208.132 357.075 204.51 360.697 204.51 365.165C204.51 369.633 208.132 373.255 212.6 373.255Z" fill="#8C387F"/>
<path d="M187.98 475.795C194.961 475.795 200.62 470.136 200.62 463.155C200.62 456.174 194.961 450.515 187.98 450.515C180.999 450.515 175.34 456.174 175.34 463.155C175.34 470.136 180.999 475.795 187.98 475.795Z" fill="#8C387F"/>
<path d="M324.02 475.795C331.001 475.795 336.66 470.136 336.66 463.155C336.66 456.174 331.001 450.515 324.02 450.515C317.039 450.515 311.38 456.174 311.38 463.155C311.38 470.136 317.039 475.795 324.02 475.795Z" fill="#8C387F"/>
<path d="M256 489.995C248.884 489.987 242.062 487.157 237.03 482.125C231.998 477.093 229.168 470.271 229.16 463.155C229.16 461.542 229.801 459.996 230.941 458.856C232.081 457.715 233.628 457.075 235.24 457.075C236.853 457.075 238.399 457.715 239.539 458.856C240.679 459.996 241.32 461.542 241.32 463.155C241.32 467.042 242.864 470.769 245.612 473.517C248.361 476.266 252.088 477.81 255.975 477.81C259.862 477.81 263.589 476.266 266.338 473.517C269.086 470.769 270.63 467.042 270.63 463.155C270.63 461.542 271.271 459.996 272.411 458.856C273.551 457.715 275.098 457.075 276.71 457.075C278.323 457.075 279.869 457.715 281.009 458.856C282.149 459.996 282.79 461.542 282.79 463.155C282.79 470.265 279.969 477.084 274.946 482.116C269.924 487.148 263.11 489.982 256 489.995V489.995Z" fill="#8C387F"/>
<path d="M208.34 127.155C208.34 89.0549 177.06 66.6149 142.69 66.6149C108.32 66.6149 77 88.5949 77 127.155C77 149.625 84 160.095 93.56 179.945C101.99 197.385 113.89 232.625 113.89 232.625H171.42C171.42 232.625 183.57 197.485 191.75 179.945C202.24 157.545 208.34 146.895 208.34 127.155V127.155Z" fill="#FFF96A"/>
<path d="M171.45 238.705H113.92C112.649 238.705 111.409 238.307 110.376 237.566C109.343 236.825 108.568 235.779 108.16 234.575C108.04 234.225 96.28 199.495 88.16 182.575C86.86 179.885 85.61 177.375 84.42 174.985C76.62 159.305 70.99 147.985 70.99 127.145C71 83.4249 107 60.5449 142.69 60.5449C161.58 60.5449 179.22 66.7349 192.36 77.9849C206.79 90.3449 214.42 107.345 214.42 127.165C214.42 146.165 209.15 157.375 200.42 175.875C199.42 177.975 198.42 180.185 197.3 182.525C189.3 199.585 177.3 234.265 177.21 234.615C176.795 235.812 176.018 236.849 174.985 237.582C173.952 238.316 172.716 238.708 171.45 238.705V238.705ZM118.27 226.545H167.14C170.61 216.695 179.63 191.625 186.27 177.375C187.37 175.025 188.42 172.795 189.42 170.675C197.7 153.125 202.26 143.465 202.26 127.155C202.26 91.4049 172.26 72.6949 142.69 72.6949C114 72.6949 83.12 89.6949 83.12 127.155C83.12 145.155 87.7 154.335 95.28 169.585C96.49 172.015 97.76 174.585 99.08 177.295C105.93 191.545 114.84 216.635 118.27 226.545V226.545Z" fill="#8C387F"/>
<path d="M168.46 232.625H116.92C113.921 232.625 111.49 235.056 111.49 238.055V245.675C111.49 248.674 113.921 251.105 116.92 251.105H168.46C171.459 251.105 173.89 248.674 173.89 245.675V238.055C173.89 235.056 171.459 232.625 168.46 232.625Z" fill="white"/>
<path d="M168.46 257.185H116.92C113.868 257.182 110.942 255.969 108.784 253.811C106.626 251.653 105.413 248.727 105.41 245.675V238.065C105.41 235.011 106.622 232.083 108.781 229.923C110.939 227.762 113.866 226.548 116.92 226.545H168.46C169.974 226.542 171.473 226.838 172.872 227.415C174.272 227.992 175.544 228.839 176.615 229.908C177.687 230.977 178.538 232.247 179.118 233.645C179.699 235.043 179.999 236.541 180 238.055V245.665C180 247.179 179.701 248.679 179.121 250.078C178.541 251.477 177.691 252.748 176.619 253.818C175.547 254.888 174.275 255.736 172.875 256.314C171.475 256.891 169.975 257.188 168.46 257.185V257.185ZM117.57 245.025H167.82V238.705H117.56L117.57 245.025Z" fill="#8C387F"/>
<path d="M168.46 251.105H116.92C113.921 251.105 111.49 253.536 111.49 256.535V264.155C111.49 267.154 113.921 269.585 116.92 269.585H168.46C171.459 269.585 173.89 267.154 173.89 264.155V256.535C173.89 253.536 171.459 251.105 168.46 251.105Z" fill="white"/>
<path d="M168.46 275.655H116.92C113.868 275.652 110.942 274.439 108.784 272.281C106.626 270.123 105.413 267.197 105.41 264.145V256.545C105.413 253.493 106.626 250.567 108.784 248.409C110.942 246.251 113.868 245.038 116.92 245.035H168.46C169.974 245.032 171.473 245.328 172.872 245.905C174.272 246.482 175.544 247.33 176.615 248.398C177.687 249.467 178.538 250.737 179.118 252.135C179.699 253.533 179.999 255.031 180 256.545V264.155C179.997 265.668 179.697 267.165 179.115 268.562C178.534 269.959 177.683 271.227 176.612 272.295C175.54 273.363 174.269 274.209 172.87 274.786C171.471 275.362 169.973 275.658 168.46 275.655V275.655ZM117.56 263.545H167.81V257.225H117.56V263.545Z" fill="#8C387F"/>
<path d="M163.78 269.755C163.78 280.495 154.34 289.205 142.69 289.205C131.04 289.205 121.6 280.495 121.6 269.755H163.78Z" fill="white"/>
<path d="M142.69 295.285C127.69 295.285 115.52 283.835 115.52 269.755C115.52 268.142 116.161 266.596 117.301 265.456C118.441 264.315 119.988 263.675 121.6 263.675H163.79C165.403 263.675 166.949 264.315 168.089 265.456C169.229 266.596 169.87 268.142 169.87 269.755C169.86 283.835 157.67 295.285 142.69 295.285ZM129.32 275.835C130.762 278.07 132.741 279.908 135.077 281.181C137.412 282.454 140.03 283.121 142.69 283.121C145.35 283.121 147.968 282.454 150.303 281.181C152.639 279.908 154.618 278.07 156.06 275.835H129.32Z" fill="#8C387F"/>
<path d="M466.24 438.545H45.76C44.1612 438.545 42.6268 437.915 41.4888 436.792C40.3509 435.67 39.701 434.143 39.68 432.545V184.285C39.68 182.672 40.3206 181.126 41.4608 179.986C42.601 178.845 44.1475 178.205 45.76 178.205C47.3725 178.205 48.919 178.845 50.0592 179.986C51.1994 181.126 51.84 182.672 51.84 184.285V426.435H460.16V184.285C460.152 176.511 457.06 169.058 451.564 163.561C446.067 158.064 438.614 154.973 430.84 154.965H239.23C237.617 154.965 236.071 154.324 234.931 153.184C233.791 152.044 233.15 150.497 233.15 148.885C233.15 147.272 233.791 145.726 234.931 144.586C236.071 143.445 237.617 142.805 239.23 142.805H430.84C441.838 142.815 452.382 147.189 460.159 154.966C467.936 162.743 472.309 173.287 472.32 184.285V432.545C472.299 434.143 471.649 435.67 470.511 436.792C469.373 437.915 467.839 438.545 466.24 438.545V438.545Z" fill="#8C387F"/>
<path d="M183.78 137.495C182.167 137.495 180.621 136.854 179.481 135.714C178.341 134.574 177.7 133.027 177.7 131.415C177.7 108.585 160.09 96.6349 142.7 96.6349C141.902 96.6349 141.111 96.4776 140.373 96.1721C139.636 95.8665 138.965 95.4187 138.401 94.8541C137.836 94.2895 137.388 93.6193 137.083 92.8816C136.777 92.144 136.62 91.3533 136.62 90.5549C136.62 89.7565 136.777 88.9658 137.083 88.2282C137.388 87.4905 137.836 86.8203 138.401 86.2557C138.965 85.6911 139.636 85.2433 140.373 84.9377C141.111 84.6322 141.902 84.4749 142.7 84.4749C154.785 84.339 166.477 88.7671 175.44 96.8749C184.75 105.465 189.88 117.735 189.88 131.415C189.88 132.215 189.722 133.007 189.415 133.746C189.108 134.485 188.659 135.156 188.092 135.721C187.525 136.286 186.853 136.733 186.113 137.038C185.373 137.342 184.58 137.498 183.78 137.495V137.495Z" fill="white"/>
<path d="M411.728 476H373.272C372.67 476 372.092 475.368 371.666 474.243C371.239 473.117 371 471.591 371 470C371 468.409 371.239 466.883 371.666 465.757C372.092 464.632 372.67 464 373.272 464H411.728C412.33 464 412.908 464.632 413.334 465.757C413.761 466.883 414 468.409 414 470C414 471.591 413.761 473.117 413.334 474.243C412.908 475.368 412.33 476 411.728 476V476Z" fill="#FF32B9"/>
<path d="M138.744 476H100.256C99.6575 476 99.0837 475.368 98.6607 474.243C98.2377 473.117 98 471.591 98 470C98 468.409 98.2377 466.883 98.6607 465.757C99.0837 464.632 99.6575 464 100.256 464H138.744C139.343 464 139.916 464.632 140.339 465.757C140.762 466.883 141 468.409 141 470C141 471.591 140.762 473.117 140.339 474.243C139.916 475.368 139.343 476 138.744 476V476Z" fill="#FF32B9"/>
</svg>
