<svg width="32" height="31" viewBox="0 0 32 31" fill="none" xmlns="http://www.w3.org/2000/svg">
<path d="M21.3688 4.99864L27.6365 11.2537C28.6242 12.254 28.6242 13.8495 27.6365 14.8498L16 26.4863C15.0487 27.4349 13.7601 27.9675 12.4166 27.9675C11.0732 27.9675 9.78458 27.4349 8.83326 26.4863L4.36352 22.0165C3.37588 21.0162 3.37588 19.4208 4.36352 18.4205L17.7854 4.99864C18.7857 4.01099 20.3811 4.01099 21.3688 4.99864V4.99864ZM6.14888 20.2185L10.6313 24.6883C11.6189 25.6886 13.2144 25.6886 14.2147 24.6883L18.6844 20.2185L12.4166 13.9508L6.14888 20.2185V20.2185Z" fill="black"/>
</svg>
