<svg width="32" height="31" viewBox="0 0 32 31" fill="none" xmlns="http://www.w3.org/2000/svg">
<path d="M23.508 4.2601C22.9944 4.26135 22.4861 4.36428 22.0124 4.56297C21.5387 4.76166 21.1091 5.05217 20.7483 5.41774L5.73132 20.4338L5.67244 20.731L4.63351 25.9541L4.33722 27.3482L5.73227 27.052L10.9554 26.013L11.2517 25.9532L26.2687 10.9372C26.6352 10.577 26.9263 10.1474 27.125 9.6735C27.3238 9.19959 27.4261 8.69086 27.4261 8.17698C27.4261 7.66309 27.3238 7.15436 27.125 6.68045C26.9263 6.20655 26.6352 5.77697 26.2687 5.41679C25.9077 5.05128 25.4778 4.76088 25.004 4.56235C24.5302 4.36382 24.0217 4.2611 23.508 4.2601V4.2601ZM23.508 6.07015C23.9866 6.07015 24.4691 6.28858 24.9325 6.75296C25.8565 7.67603 25.8565 8.67792 24.9325 9.60194L24.2506 10.2544L21.4302 7.43482L22.0835 6.75296C22.5479 6.28858 23.0294 6.07015 23.508 6.07015V6.07015ZM20.0959 8.77099L22.9145 11.5905L11.4302 23.0738C10.8102 21.8608 9.82319 20.8744 8.60974 20.2552L20.0959 8.77099ZM7.39417 21.7994C7.95622 22.0255 8.46676 22.3629 8.89515 22.7913C9.32353 23.2196 9.66091 23.7302 9.88703 24.2922L6.77024 24.9152L7.39417 21.7994Z" fill="black"/>
</svg>
